<svg width="45" height="13" viewBox="0 0 45 13" fill="none" xmlns="http://www.w3.org/2000/svg">
<path d="M0.409091 12V0.363636H4.47727C5.28788 0.363636 5.95644 0.503788 6.48295 0.784091C7.00947 1.06061 7.40152 1.43371 7.65909 1.90341C7.91667 2.36932 8.04545 2.88636 8.04545 3.45455C8.04545 3.95455 7.95644 4.36742 7.77841 4.69318C7.60417 5.01894 7.37311 5.27652 7.08523 5.46591C6.80114 5.6553 6.49242 5.79545 6.15909 5.88636V6C6.51515 6.02273 6.87311 6.14773 7.23295 6.375C7.5928 6.60227 7.89394 6.92803 8.13636 7.35227C8.37879 7.77651 8.5 8.29545 8.5 8.90909C8.5 9.49242 8.36742 10.017 8.10227 10.483C7.83712 10.9489 7.41856 11.3182 6.84659 11.5909C6.27462 11.8636 5.5303 12 4.61364 12H0.409091ZM1.81818 10.75H4.61364C5.53409 10.75 6.1875 10.572 6.57386 10.2159C6.96402 9.85606 7.15909 9.42045 7.15909 8.90909C7.15909 8.51515 7.05871 8.15152 6.85795 7.81818C6.6572 7.48106 6.37121 7.21212 6 7.01136C5.62879 6.80682 5.18939 6.70455 4.68182 6.70455H1.81818V10.75ZM1.81818 5.47727H4.43182C4.85606 5.47727 5.23864 5.39394 5.57955 5.22727C5.92424 5.06061 6.19697 4.82576 6.39773 4.52273C6.60227 4.2197 6.70455 3.86364 6.70455 3.45455C6.70455 2.94318 6.52652 2.50947 6.17045 2.15341C5.81439 1.79356 5.25 1.61364 4.47727 1.61364H1.81818V5.47727ZM14.179 12.1818C13.3911 12.1818 12.6998 11.9943 12.1051 11.6193C11.5142 11.2443 11.0521 10.7197 10.7188 10.0455C10.3892 9.37121 10.2244 8.58333 10.2244 7.68182C10.2244 6.77273 10.3892 5.97917 10.7188 5.30114C11.0521 4.62311 11.5142 4.09659 12.1051 3.72159C12.6998 3.34659 13.3911 3.15909 14.179 3.15909C14.9669 3.15909 15.6563 3.34659 16.2472 3.72159C16.8419 4.09659 17.304 4.62311 17.6335 5.30114C17.9669 5.97917 18.1335 6.77273 18.1335 7.68182C18.1335 8.58333 17.9669 9.37121 17.6335 10.0455C17.304 10.7197 16.8419 11.2443 16.2472 11.6193C15.6563 11.9943 14.9669 12.1818 14.179 12.1818ZM14.179 10.9773C14.7775 10.9773 15.2699 10.8239 15.6562 10.517C16.0426 10.2102 16.3286 9.80682 16.5142 9.30682C16.6998 8.80682 16.7926 8.26515 16.7926 7.68182C16.7926 7.09848 16.6998 6.55492 16.5142 6.05114C16.3286 5.54735 16.0426 5.14015 15.6562 4.82955C15.2699 4.51894 14.7775 4.36364 14.179 4.36364C13.5805 4.36364 13.0881 4.51894 12.7017 4.82955C12.3153 5.14015 12.0294 5.54735 11.8438 6.05114C11.6581 6.55492 11.5653 7.09848 11.5653 7.68182C11.5653 8.26515 11.6581 8.80682 11.8438 9.30682C12.0294 9.80682 12.3153 10.2102 12.7017 10.517C13.0881 10.8239 13.5805 10.9773 14.179 10.9773ZM21.5213 10.0227L25.7259 3.27273H27.2713V12H25.9304V5.25L21.7486 12H20.1804V3.27273H21.5213V10.0227ZM24.8395 0.363636H26.0895C26.0895 0.977273 25.8774 1.47917 25.4531 1.86932C25.0289 2.25947 24.4531 2.45455 23.7259 2.45455C23.0099 2.45455 22.4399 2.25947 22.0156 1.86932C21.5952 1.47917 21.3849 0.977273 21.3849 0.363636H22.6349C22.6349 0.659091 22.7164 0.91856 22.8793 1.14205C23.0459 1.36553 23.3281 1.47727 23.7259 1.47727C24.1236 1.47727 24.4077 1.36553 24.5781 1.14205C24.7524 0.91856 24.8395 0.659091 24.8395 0.363636ZM28.5398 4.52273V3.27273H35.6307V4.52273H32.767V12H31.4261V4.52273H28.5398ZM38.9276 10.0227L43.1321 3.27273H44.6776V12H43.3366V5.25L39.1548 12H37.5866V3.27273H38.9276V10.0227Z" fill="black"/>
</svg>
