<svg width="91" height="81" viewBox="0 0 91 81" fill="none" xmlns="http://www.w3.org/2000/svg">
<path d="M2.15199 4.18182H6.98864L13.4659 19.9915H13.7216L20.1989 4.18182H25.0355V26H21.2429V11.0107H21.0405L15.0107 25.9361H12.1768L6.14702 10.9787H5.9446V26H2.15199V4.18182Z" fill="#369FAB"/>
<path d="M36.7358 26.2862C35.8371 26.2862 35.0277 26.1262 34.3075 25.8061C33.5935 25.4799 33.0272 24.9998 32.6087 24.3658C32.1963 23.7318 31.9901 22.95 31.9901 22.0206C31.9901 21.2204 32.1378 20.5587 32.4332 20.0355C32.7287 19.5123 33.1319 19.0938 33.6428 18.7798C34.1536 18.4659 34.7292 18.2289 35.3693 18.0689C36.0156 17.9027 36.6835 17.7827 37.3729 17.7088C38.2038 17.6226 38.8778 17.5457 39.3949 17.478C39.9119 17.4041 40.2874 17.2933 40.5213 17.1456C40.7614 16.9917 40.8814 16.7547 40.8814 16.4347V16.3793C40.8814 15.6837 40.6752 15.1451 40.2628 14.7635C39.8504 14.3819 39.2564 14.1911 38.4808 14.1911C37.6622 14.1911 37.0128 14.3696 36.5327 14.7266C36.0587 15.0836 35.7386 15.5052 35.5724 15.9915L32.4517 15.5483C32.6979 14.6866 33.1042 13.9664 33.6705 13.3878C34.2367 12.803 34.9292 12.366 35.7479 12.0767C36.5665 11.7812 37.4714 11.6335 38.4624 11.6335C39.1456 11.6335 39.8258 11.7135 40.5028 11.8736C41.1799 12.0336 41.7985 12.2983 42.3587 12.6676C42.9188 13.0308 43.3681 13.5263 43.7067 14.1541C44.0514 14.782 44.2237 15.5668 44.2237 16.5085V26H41.0107V24.0518H40.8999C40.6967 24.4458 40.4105 24.8151 40.0412 25.1598C39.678 25.4983 39.2195 25.7723 38.6655 25.9815C38.1177 26.1847 37.4744 26.2862 36.7358 26.2862ZM37.6037 23.8303C38.2746 23.8303 38.8563 23.6979 39.3487 23.4332C39.8411 23.1624 40.2197 22.8054 40.4844 22.3622C40.7552 21.919 40.8906 21.4358 40.8906 20.9126V19.2415C40.786 19.3277 40.6075 19.4077 40.3551 19.4815C40.1089 19.5554 39.8319 19.62 39.5241 19.6754C39.2164 19.7308 38.9117 19.7801 38.6101 19.8232C38.3085 19.8662 38.0469 19.9032 37.8253 19.9339C37.3267 20.0017 36.8804 20.1125 36.4865 20.2663C36.0926 20.4202 35.7817 20.6357 35.554 20.9126C35.3262 21.1835 35.2124 21.5343 35.2124 21.9652C35.2124 22.5807 35.437 23.0455 35.8864 23.3594C36.3357 23.6733 36.9081 23.8303 37.6037 23.8303ZM62.0433 15.5668L58.9964 15.8991C58.9103 15.5914 58.7595 15.3021 58.544 15.0312C58.3348 14.7604 58.0516 14.5419 57.6946 14.3757C57.3376 14.2095 56.9006 14.1264 56.3835 14.1264C55.688 14.1264 55.1032 14.2772 54.6293 14.5788C54.1615 14.8804 53.9306 15.2713 53.9368 15.7514C53.9306 16.1638 54.0814 16.4993 54.3892 16.7578C54.7031 17.0163 55.2202 17.2287 55.9403 17.3949L58.3594 17.9119C59.7012 18.2012 60.6984 18.6598 61.3509 19.2876C62.0095 19.9155 62.3419 20.7372 62.348 21.7528C62.3419 22.6454 62.0803 23.4332 61.5632 24.1165C61.0523 24.7936 60.3414 25.3229 59.4304 25.7045C58.5194 26.0862 57.473 26.277 56.2912 26.277C54.5554 26.277 53.1581 25.9138 52.0994 25.1875C51.0407 24.455 50.4098 23.4363 50.2067 22.1314L53.4659 21.8175C53.6136 22.4576 53.9276 22.9408 54.4077 23.267C54.8878 23.5933 55.5125 23.7564 56.282 23.7564C57.076 23.7564 57.7131 23.5933 58.1932 23.267C58.6795 22.9408 58.9226 22.5376 58.9226 22.0575C58.9226 21.6513 58.7656 21.3158 58.4517 21.0511C58.1439 20.7865 57.6638 20.5833 57.0114 20.4418L54.5923 19.9339C53.232 19.6508 52.2256 19.1738 51.5732 18.5028C50.9207 17.8258 50.5975 16.9702 50.6037 15.9361C50.5975 15.062 50.8345 14.3049 51.3146 13.6648C51.8009 13.0185 52.4749 12.5199 53.3366 12.169C54.2045 11.812 55.2048 11.6335 56.3374 11.6335C57.9993 11.6335 59.3073 11.9875 60.2614 12.6953C61.2216 13.4032 61.8156 14.3603 62.0433 15.5668ZM79.5629 15.5668L76.516 15.8991C76.4298 15.5914 76.279 15.3021 76.0636 15.0312C75.8543 14.7604 75.5711 14.5419 75.2141 14.3757C74.8571 14.2095 74.4201 14.1264 73.9031 14.1264C73.2075 14.1264 72.6228 14.2772 72.1488 14.5788C71.681 14.8804 71.4502 15.2713 71.4563 15.7514C71.4502 16.1638 71.601 16.4993 71.9087 16.7578C72.2227 17.0163 72.7397 17.2287 73.4599 17.3949L75.8789 17.9119C77.2208 18.2012 78.2179 18.6598 78.8704 19.2876C79.529 19.9155 79.8614 20.7372 79.8675 21.7528C79.8614 22.6454 79.5998 23.4332 79.0827 24.1165C78.5719 24.7936 77.8609 25.3229 76.9499 25.7045C76.0389 26.0862 74.9925 26.277 73.8107 26.277C72.0749 26.277 70.6777 25.9138 69.619 25.1875C68.5603 24.455 67.9293 23.4363 67.7262 22.1314L70.9854 21.8175C71.1332 22.4576 71.4471 22.9408 71.9272 23.267C72.4073 23.5933 73.0321 23.7564 73.8015 23.7564C74.5955 23.7564 75.2326 23.5933 75.7127 23.267C76.199 22.9408 76.4421 22.5376 76.4421 22.0575C76.4421 21.6513 76.2852 21.3158 75.9712 21.0511C75.6635 20.7865 75.1834 20.5833 74.5309 20.4418L72.1119 19.9339C70.7515 19.6508 69.7451 19.1738 69.0927 18.5028C68.4402 17.8258 68.1171 16.9702 68.1232 15.9361C68.1171 15.062 68.354 14.3049 68.8342 13.6648C69.3204 13.0185 69.9944 12.5199 70.8562 12.169C71.7241 11.812 72.7243 11.6335 73.8569 11.6335C75.5188 11.6335 76.8268 11.9875 77.7809 12.6953C78.7411 13.4032 79.3351 14.3603 79.5629 15.5668ZM1.86506 34.0909H6.05682L11.6705 47.7926H11.892L17.5057 34.0909H21.6974V53H18.4105V40.0092H18.2351L13.0092 52.9446H10.5533L5.32742 39.9815H5.15199V53H1.86506V34.0909ZM34.8082 53.277C33.3864 53.277 32.1584 52.9815 31.1243 52.3906C30.0964 51.7936 29.3054 50.9503 28.7514 49.8608C28.1974 48.7652 27.9205 47.4756 27.9205 45.9922C27.9205 44.5334 28.1974 43.2531 28.7514 42.1513C29.3116 41.0433 30.0933 40.1816 31.0966 39.5661C32.0999 38.9444 33.2786 38.6335 34.6328 38.6335C35.5069 38.6335 36.3317 38.7751 37.1072 39.0582C37.889 39.3352 38.5784 39.7661 39.1754 40.3509C39.7786 40.9356 40.2526 41.6804 40.5973 42.5852C40.942 43.4839 41.1143 44.5549 41.1143 45.7983V46.8232H29.4901V44.5703H37.9105C37.9044 43.9302 37.7659 43.3608 37.495 42.8622C37.2242 42.3575 36.8456 41.9605 36.3594 41.6712C35.8793 41.3819 35.3191 41.2372 34.679 41.2372C33.9957 41.2372 33.3956 41.4034 32.8786 41.7358C32.3615 42.062 31.9583 42.4929 31.669 43.0284C31.3859 43.5578 31.2412 44.1394 31.2351 44.7734V46.7401C31.2351 47.5649 31.3859 48.2727 31.6875 48.8636C31.9891 49.4484 32.4107 49.8977 32.9524 50.2116C33.4941 50.5194 34.1281 50.6733 34.8544 50.6733C35.3407 50.6733 35.7808 50.6056 36.1747 50.4702C36.5687 50.3286 36.9103 50.1224 37.1996 49.8516C37.4889 49.5807 37.7074 49.2453 37.8551 48.8452L40.9759 49.196C40.7789 50.0208 40.4034 50.741 39.8494 51.3565C39.3016 51.9659 38.5999 52.4399 37.7443 52.7784C36.8887 53.1108 35.91 53.277 34.8082 53.277ZM52.4547 53.2493C51.3406 53.2493 50.3435 52.9631 49.4632 52.3906C48.583 51.8182 47.8875 50.9872 47.3766 49.8977C46.8657 48.8082 46.6103 47.4848 46.6103 45.9276C46.6103 44.3518 46.8688 43.0223 47.3858 41.9389C47.909 40.8494 48.6138 40.0277 49.5002 39.4737C50.3865 38.9136 51.3745 38.6335 52.464 38.6335C53.2949 38.6335 53.9782 38.7751 54.5137 39.0582C55.0492 39.3352 55.4739 39.6707 55.7878 40.0646C56.1017 40.4524 56.3449 40.8187 56.5172 41.1634H56.6557V34.0909H60.0073V53H56.7203V50.7656H56.5172C56.3449 51.1103 56.0956 51.4766 55.7694 51.8643C55.4431 52.246 55.0123 52.5722 54.4767 52.843C53.9412 53.1139 53.2672 53.2493 52.4547 53.2493ZM53.3873 50.5071C54.0951 50.5071 54.6983 50.3163 55.1969 49.9347C55.6955 49.5469 56.074 49.0083 56.3326 48.3189C56.5911 47.6295 56.7203 46.8262 56.7203 45.9091C56.7203 44.992 56.5911 44.1948 56.3326 43.5178C56.0802 42.8407 55.7047 42.3144 55.2061 41.9389C54.7137 41.5634 54.1074 41.3757 53.3873 41.3757C52.6425 41.3757 52.0208 41.5696 51.5222 41.9574C51.0236 42.3452 50.6481 42.8807 50.3958 43.5639C50.1434 44.2472 50.0172 45.0289 50.0172 45.9091C50.0172 46.7955 50.1434 47.5864 50.3958 48.282C50.6543 48.9714 51.0328 49.5161 51.5314 49.9162C52.0362 50.3101 52.6548 50.5071 53.3873 50.5071ZM66.8189 53V38.8182H70.1612V53H66.8189ZM68.4993 36.8054C67.9699 36.8054 67.5144 36.63 67.1328 36.2791C66.7512 35.9221 66.5604 35.4943 66.5604 34.9957C66.5604 34.491 66.7512 34.0632 67.1328 33.7124C67.5144 33.3553 67.9699 33.1768 68.4993 33.1768C69.0348 33.1768 69.4903 33.3553 69.8658 33.7124C70.2474 34.0632 70.4382 34.491 70.4382 34.9957C70.4382 35.4943 70.2474 35.9221 69.8658 36.2791C69.4903 36.63 69.0348 36.8054 68.4993 36.8054ZM80.9292 53.2862C80.0305 53.2862 79.2211 53.1262 78.5009 52.8061C77.7869 52.4799 77.2206 51.9998 76.802 51.3658C76.3896 50.7318 76.1834 49.95 76.1834 49.0206C76.1834 48.2204 76.3311 47.5587 76.6266 47.0355C76.9221 46.5123 77.3252 46.0938 77.8361 45.7798C78.347 45.4659 78.9225 45.2289 79.5627 45.0689C80.209 44.9027 80.8768 44.7827 81.5662 44.7088C82.3972 44.6226 83.0712 44.5457 83.5882 44.478C84.1053 44.4041 84.4808 44.2933 84.7147 44.1456C84.9547 43.9917 85.0748 43.7547 85.0748 43.4347V43.3793C85.0748 42.6837 84.8685 42.1451 84.4561 41.7635C84.0437 41.3819 83.4498 41.1911 82.6742 41.1911C81.8555 41.1911 81.2061 41.3696 80.726 41.7266C80.2521 42.0836 79.932 42.5052 79.7658 42.9915L76.6451 42.5483C76.8913 41.6866 77.2975 40.9664 77.8638 40.3878C78.4301 39.803 79.1226 39.366 79.9412 39.0767C80.7599 38.7812 81.6647 38.6335 82.6557 38.6335C83.339 38.6335 84.0191 38.7135 84.6962 38.8736C85.3733 39.0336 85.9919 39.2983 86.552 39.6676C87.1122 40.0308 87.5615 40.5263 87.9 41.1541C88.2447 41.782 88.4171 42.5668 88.4171 43.5085V53H85.204V51.0518H85.0932C84.8901 51.4458 84.6039 51.8151 84.2346 52.1598C83.8714 52.4983 83.4128 52.7723 82.8588 52.9815C82.311 53.1847 81.6678 53.2862 80.9292 53.2862ZM81.7971 50.8303C82.468 50.8303 83.0497 50.6979 83.5421 50.4332C84.0345 50.1624 84.4131 49.8054 84.6777 49.3622C84.9486 48.919 85.084 48.4358 85.084 47.9126V46.2415C84.9793 46.3277 84.8008 46.4077 84.5485 46.4815C84.3023 46.5554 84.0253 46.62 83.7175 46.6754C83.4097 46.7308 83.1051 46.7801 82.8034 46.8232C82.5018 46.8662 82.2402 46.9032 82.0186 46.9339C81.5201 47.0017 81.0738 47.1125 80.6799 47.2663C80.2859 47.4202 79.9751 47.6357 79.7473 47.9126C79.5196 48.1835 79.4057 48.5343 79.4057 48.9652C79.4057 49.5807 79.6304 50.0455 80.0797 50.3594C80.5291 50.6733 81.1015 50.8303 81.7971 50.8303Z" fill="black"/>
<path d="M1.53977 65.3636H2.59659V69.2216C2.59659 69.8239 2.70076 70.3087 2.90909 70.6761C3.12121 71.0398 3.42614 71.303 3.82386 71.4659C4.22159 71.6288 4.70076 71.7102 5.26136 71.7102C5.56818 71.7102 5.87311 71.697 6.17614 71.6705C6.47917 71.6439 6.77841 71.6061 7.07386 71.5568C7.37311 71.5038 7.66856 71.4413 7.96023 71.3693C8.25189 71.2973 8.53788 71.214 8.81818 71.1193V72.0966C8.52273 72.1913 8.23485 72.2746 7.95455 72.3466C7.67424 72.4186 7.39205 72.4811 7.10795 72.5341C6.82765 72.5833 6.53598 72.6212 6.23295 72.6477C5.92992 72.6705 5.60795 72.6818 5.26705 72.6818C4.47917 72.6818 3.80682 72.5625 3.25 72.3239C2.69318 72.0852 2.26894 71.7121 1.97727 71.2045C1.68561 70.6932 1.53977 70.0322 1.53977 69.2216V65.3636ZM8.68182 65.3636H9.72159V77H8.68182V65.3636ZM16.1293 77.1818C15.3149 77.1818 14.6103 76.9924 14.0156 76.6136C13.4209 76.2311 12.9607 75.7027 12.6349 75.0284C12.313 74.3504 12.152 73.5701 12.152 72.6875C12.152 71.8087 12.313 71.0284 12.6349 70.3466C12.9607 69.661 13.4096 69.125 13.9815 68.7386C14.5573 68.3485 15.2221 68.1534 15.9759 68.1534C16.4493 68.1534 16.9058 68.2405 17.3452 68.4148C17.7846 68.5852 18.1785 68.8485 18.527 69.2045C18.8793 69.5568 19.1577 70.0019 19.3622 70.5398C19.5668 71.0739 19.669 71.7064 19.669 72.4375V72.9375H12.8509V72.0455H18.6349C18.6349 71.4848 18.5213 70.9811 18.294 70.5341C18.0705 70.0833 17.758 69.7273 17.3565 69.4659C16.9588 69.2045 16.4986 69.0739 15.9759 69.0739C15.4228 69.0739 14.9361 69.2216 14.5156 69.517C14.0952 69.8125 13.7656 70.2027 13.527 70.6875C13.2921 71.1723 13.1728 71.7027 13.169 72.2784V72.8125C13.169 73.5057 13.2884 74.1117 13.527 74.6307C13.7694 75.1458 14.1122 75.5455 14.5554 75.8295C14.9986 76.1136 15.5232 76.2557 16.1293 76.2557C16.5421 76.2557 16.9039 76.1913 17.2145 76.0625C17.5289 75.9337 17.7921 75.7614 18.0043 75.5455C18.2202 75.3258 18.383 75.0852 18.4929 74.8239L19.4531 75.1364C19.3205 75.5038 19.1027 75.8428 18.7997 76.1534C18.5005 76.464 18.1255 76.714 17.6747 76.9034C17.2277 77.089 16.7126 77.1818 16.1293 77.1818ZM21.0398 77V76.0455H21.3125C21.6231 76.0455 21.8731 75.9886 22.0625 75.875C22.2557 75.7576 22.4053 75.5606 22.5114 75.2841C22.6174 75.0076 22.697 74.6307 22.75 74.1534C22.803 73.6761 22.8447 73.0777 22.875 72.358L23.0625 68.2727H28.608V77H27.5909V69.2273H24.0227L23.858 72.6989C23.8239 73.4072 23.767 74.0303 23.6875 74.5682C23.6117 75.1061 23.4867 75.5549 23.3125 75.9148C23.142 76.2746 22.9034 76.5455 22.5966 76.7273C22.2936 76.9091 21.8958 77 21.4034 77H21.0398ZM36.5384 77V69.2102H34.1349C33.5099 69.214 33.0346 69.3447 32.7088 69.6023C32.3868 69.8598 32.2259 70.2443 32.2259 70.7557C32.2259 71.267 32.3793 71.6515 32.6861 71.9091C32.9929 72.1629 33.4399 72.2898 34.027 72.2898H36.8224V73.2443H34.027C33.4247 73.2443 32.9134 73.1477 32.4929 72.9545C32.0762 72.7614 31.758 72.4792 31.5384 72.108C31.3187 71.7367 31.2088 71.286 31.2088 70.7557C31.2088 70.2216 31.3205 69.7708 31.544 69.4034C31.7713 69.0322 32.1027 68.7519 32.5384 68.5625C32.9777 68.3693 33.5099 68.2727 34.1349 68.2727H37.5043V77H36.5384ZM30.6577 77L33.169 72.6591H34.277L31.7656 77H30.6577ZM46.4787 65L47.0071 65.642C46.7685 65.8731 46.4825 66.0322 46.1491 66.1193C45.8196 66.2027 45.4503 66.25 45.0412 66.2614C44.6359 66.2727 44.1984 66.2898 43.7287 66.3125C43.0545 66.3466 42.4995 66.5227 42.0639 66.8409C41.6283 67.1553 41.2969 67.6098 41.0696 68.2045C40.8461 68.7955 40.706 69.517 40.6491 70.3693H40.7628C41.0545 69.7746 41.4654 69.322 41.9957 69.0114C42.5298 68.7008 43.117 68.5455 43.7571 68.5455C44.4276 68.5455 45.0298 68.7102 45.5639 69.0398C46.1018 69.3655 46.526 69.8447 46.8366 70.4773C47.151 71.1061 47.3082 71.8731 47.3082 72.7784C47.3082 73.6723 47.151 74.4508 46.8366 75.1136C46.5223 75.7727 46.0829 76.2822 45.5185 76.642C44.9541 77.0019 44.2931 77.1818 43.5355 77.1818C42.7741 77.1818 42.1075 77.0038 41.5355 76.6477C40.9673 76.2879 40.526 75.7595 40.2116 75.0625C39.901 74.3617 39.7457 73.5 39.7457 72.4773V71.5625C39.7457 69.5284 40.0677 67.9981 40.7116 66.9716C41.3556 65.9451 42.3461 65.4091 43.6832 65.3636C44.1151 65.3485 44.5071 65.3447 44.8594 65.3523C45.2116 65.3561 45.5223 65.339 45.7912 65.3011C46.0601 65.2595 46.2893 65.1591 46.4787 65ZM43.5355 76.2557C44.0999 76.2557 44.5885 76.1136 45.0014 75.8295C45.4143 75.5417 45.7325 75.1364 45.956 74.6136C46.1832 74.0909 46.2969 73.4792 46.2969 72.7784C46.2969 72.0814 46.1813 71.4867 45.9503 70.9943C45.723 70.5019 45.4048 70.125 44.9957 69.8636C44.5866 69.6023 44.1075 69.4716 43.5582 69.4716C43.1264 69.4716 42.7382 69.5549 42.3935 69.7216C42.0526 69.8845 41.7609 70.1174 41.5185 70.4205C41.276 70.7235 41.0904 71.0795 40.9616 71.4886C40.8329 71.8977 40.7666 72.3466 40.7628 72.8352C40.7628 73.892 41.009 74.7273 41.5014 75.3409C41.9976 75.9508 42.6757 76.2557 43.5355 76.2557ZM50.5341 75.5625L55.142 68.2727H56.3523V77H55.3409V69.7102L50.75 77H49.5227V68.2727H50.5341V75.5625ZM64.9148 72.1648V73.1193H59.7841V72.1648H64.9148ZM60.0341 68.2727V77H59.0227V68.2727H60.0341ZM65.6591 68.2727V77H64.6477V68.2727H65.6591ZM71.7599 77.1818C70.9796 77.1818 70.2997 76.9867 69.7202 76.5966C69.1444 76.2064 68.6974 75.6723 68.3793 74.9943C68.0611 74.3163 67.902 73.5436 67.902 72.6761C67.902 71.8011 68.063 71.0227 68.3849 70.3409C68.7107 69.6591 69.1615 69.125 69.7372 68.7386C70.313 68.3485 70.9815 68.1534 71.7429 68.1534C72.3262 68.1534 72.8546 68.267 73.3281 68.4943C73.8016 68.7178 74.1918 69.0341 74.4986 69.4432C74.8092 69.8485 75.0043 70.322 75.0838 70.8636H74.0611C73.955 70.3712 73.6993 69.9508 73.294 69.6023C72.8925 69.25 72.3812 69.0739 71.7599 69.0739C71.2031 69.0739 70.7107 69.2254 70.2827 69.5284C69.8546 69.8277 69.5194 70.2462 69.277 70.7841C69.0384 71.3182 68.919 71.9375 68.919 72.642C68.919 73.3504 69.0365 73.9773 69.2713 74.5227C69.5062 75.0644 69.8357 75.4886 70.2599 75.7955C70.688 76.1023 71.188 76.2557 71.7599 76.2557C72.1463 76.2557 72.4986 76.1837 72.8168 76.0398C73.1387 75.892 73.4077 75.6837 73.6236 75.4148C73.8433 75.1458 73.991 74.8258 74.0668 74.4545H75.0895C75.0137 74.9811 74.8262 75.4508 74.527 75.8636C74.2315 76.2727 73.8471 76.5947 73.3736 76.8295C72.9039 77.0644 72.366 77.1818 71.7599 77.1818ZM77.2571 77V68.2727H78.2685V72.1989H79.2173L82.4616 68.2727H83.7685L80.2685 72.4716L83.848 77H82.5412L79.5298 73.1534H78.2685V77H77.2571Z" fill="black"/>
</svg>
