<svg width="143" height="43" viewBox="0 0 143 43" fill="none" xmlns="http://www.w3.org/2000/svg">
<rect x="0.5" y="0.5" width="142" height="42" rx="21" fill="#47BDCA"/>
<path d="M30.1136 15.3636V27H28.7045V16.6136H22.8409V27H21.4318V15.3636H30.1136ZM36.3196 27.1818C35.5317 27.1818 34.8404 26.9943 34.2457 26.6193C33.6548 26.2443 33.1927 25.7197 32.8594 25.0455C32.5298 24.3712 32.3651 23.5833 32.3651 22.6818C32.3651 21.7727 32.5298 20.9792 32.8594 20.3011C33.1927 19.6231 33.6548 19.0966 34.2457 18.7216C34.8404 18.3466 35.5317 18.1591 36.3196 18.1591C37.1075 18.1591 37.7969 18.3466 38.3878 18.7216C38.9825 19.0966 39.4446 19.6231 39.7741 20.3011C40.1075 20.9792 40.2741 21.7727 40.2741 22.6818C40.2741 23.5833 40.1075 24.3712 39.7741 25.0455C39.4446 25.7197 38.9825 26.2443 38.3878 26.6193C37.7969 26.9943 37.1075 27.1818 36.3196 27.1818ZM36.3196 25.9773C36.9181 25.9773 37.4105 25.8239 37.7969 25.517C38.1832 25.2102 38.4692 24.8068 38.6548 24.3068C38.8404 23.8068 38.9332 23.2652 38.9332 22.6818C38.9332 22.0985 38.8404 21.5549 38.6548 21.0511C38.4692 20.5473 38.1832 20.1402 37.7969 19.8295C37.4105 19.5189 36.9181 19.3636 36.3196 19.3636C35.7211 19.3636 35.2287 19.5189 34.8423 19.8295C34.456 20.1402 34.17 20.5473 33.9844 21.0511C33.7988 21.5549 33.706 22.0985 33.706 22.6818C33.706 23.2652 33.7988 23.8068 33.9844 24.3068C34.17 24.8068 34.456 25.2102 34.8423 25.517C35.2287 25.8239 35.7211 25.9773 36.3196 25.9773ZM41.3892 29.5V25.75H42.1165C42.2945 25.5644 42.4479 25.3636 42.5767 25.1477C42.7055 24.9318 42.8172 24.6761 42.9119 24.3807C43.0104 24.0814 43.0938 23.7178 43.1619 23.2898C43.2301 22.858 43.2907 22.3371 43.3438 21.7273L43.6392 18.2727H49.1847V25.75H50.5256V29.5H49.1847V27H42.7301V29.5H41.3892ZM43.6392 25.75H47.8438V19.5227H44.8892L44.6619 21.7273C44.5672 22.6402 44.4498 23.4375 44.3097 24.1193C44.1695 24.8011 43.946 25.3447 43.6392 25.75ZM52.3054 27V18.2727H59.169V27H57.8281V19.5227H53.6463V27H52.3054ZM62.9588 25.0227L67.1634 18.2727H68.7088V27H67.3679V20.25L63.1861 27H61.6179V18.2727H62.9588V25.0227ZM74.7102 27.1818C73.892 27.1818 73.1875 26.9886 72.5966 26.6023C72.0057 26.2159 71.5511 25.6837 71.233 25.0057C70.9148 24.3277 70.7557 23.553 70.7557 22.6818C70.7557 21.7955 70.9186 21.0133 71.2443 20.3352C71.5739 19.6534 72.0322 19.1212 72.6193 18.7386C73.2102 18.3523 73.8996 18.1591 74.6875 18.1591C75.3011 18.1591 75.8542 18.2727 76.3466 18.5C76.839 18.7273 77.2424 19.0455 77.5568 19.4545C77.8712 19.8636 78.0663 20.3409 78.142 20.8864H76.8011C76.6989 20.4886 76.4716 20.1364 76.1193 19.8295C75.7708 19.5189 75.3011 19.3636 74.7102 19.3636C74.1875 19.3636 73.7292 19.5 73.3352 19.7727C72.9451 20.0417 72.6402 20.4223 72.4205 20.9148C72.2045 21.4034 72.0966 21.9773 72.0966 22.6364C72.0966 23.3106 72.2027 23.8977 72.4148 24.3977C72.6307 24.8977 72.9337 25.286 73.3239 25.5625C73.7178 25.839 74.1799 25.9773 74.7102 25.9773C75.0587 25.9773 75.375 25.9167 75.6591 25.7955C75.9432 25.6742 76.1837 25.5 76.3807 25.2727C76.5777 25.0455 76.7178 24.7727 76.8011 24.4545H78.142C78.0663 24.9697 77.8788 25.4337 77.5795 25.8466C77.2841 26.2557 76.892 26.5814 76.4034 26.8239C75.9186 27.0625 75.3542 27.1818 74.7102 27.1818ZM82.6705 27.2045C82.1174 27.2045 81.6155 27.1004 81.1648 26.892C80.714 26.6799 80.3561 26.375 80.0909 25.9773C79.8258 25.5758 79.6932 25.0909 79.6932 24.5227C79.6932 24.0227 79.7917 23.6174 79.9886 23.3068C80.1856 22.9924 80.4489 22.7462 80.7784 22.5682C81.108 22.3902 81.4716 22.2576 81.8693 22.1705C82.2708 22.0795 82.6742 22.0076 83.0795 21.9545C83.6098 21.8864 84.0398 21.8352 84.3693 21.8011C84.7027 21.7633 84.9451 21.7008 85.0966 21.6136C85.2519 21.5265 85.3295 21.375 85.3295 21.1591V21.1136C85.3295 20.553 85.1761 20.1174 84.8693 19.8068C84.5663 19.4962 84.1061 19.3409 83.4886 19.3409C82.8485 19.3409 82.3466 19.4811 81.983 19.7614C81.6193 20.0417 81.3636 20.3409 81.2159 20.6591L79.9432 20.2045C80.1705 19.6742 80.4735 19.2614 80.8523 18.9659C81.2348 18.6667 81.6515 18.4583 82.1023 18.3409C82.5568 18.2197 83.0038 18.1591 83.4432 18.1591C83.7235 18.1591 84.0455 18.1932 84.4091 18.2614C84.7765 18.3258 85.1307 18.4602 85.4716 18.6648C85.8163 18.8693 86.1023 19.178 86.3295 19.5909C86.5568 20.0038 86.6705 20.5568 86.6705 21.25V27H85.3295V25.8182H85.2614C85.1705 26.0076 85.0189 26.2102 84.8068 26.4261C84.5947 26.642 84.3125 26.8258 83.9602 26.9773C83.608 27.1288 83.178 27.2045 82.6705 27.2045ZM82.875 26C83.4053 26 83.8523 25.8958 84.2159 25.6875C84.5833 25.4792 84.8598 25.2102 85.0455 24.8807C85.2348 24.5511 85.3295 24.2045 85.3295 23.8409V22.6136C85.2727 22.6818 85.1477 22.7443 84.9545 22.8011C84.7652 22.8542 84.5455 22.9015 84.2955 22.9432C84.0492 22.9811 83.8087 23.0152 83.5739 23.0455C83.3428 23.072 83.1553 23.0947 83.0114 23.1136C82.6629 23.1591 82.3371 23.233 82.0341 23.3352C81.7348 23.4337 81.4924 23.5833 81.3068 23.7841C81.125 23.9811 81.0341 24.25 81.0341 24.5909C81.0341 25.0568 81.2064 25.4091 81.5511 25.6477C81.8996 25.8826 82.3409 26 82.875 26ZM87.9304 19.5227V18.2727H95.0213V19.5227H92.1577V27H90.8168V19.5227H87.9304ZM98.1364 21.4318H100.636C101.659 21.4318 102.441 21.6913 102.983 22.2102C103.525 22.7292 103.795 23.3864 103.795 24.1818C103.795 24.7045 103.674 25.1799 103.432 25.608C103.189 26.0322 102.833 26.3712 102.364 26.625C101.894 26.875 101.318 27 100.636 27H96.9773V18.2727H98.3182V25.75H100.636C101.167 25.75 101.602 25.6098 101.943 25.3295C102.284 25.0492 102.455 24.6894 102.455 24.25C102.455 23.7879 102.284 23.411 101.943 23.1193C101.602 22.8277 101.167 22.6818 100.636 22.6818H98.1364V21.4318ZM109.382 27.1818C108.564 27.1818 107.859 26.9886 107.268 26.6023C106.678 26.2159 106.223 25.6837 105.905 25.0057C105.587 24.3277 105.428 23.553 105.428 22.6818C105.428 21.7955 105.59 21.0133 105.916 20.3352C106.246 19.6534 106.704 19.1212 107.291 18.7386C107.882 18.3523 108.571 18.1591 109.359 18.1591C109.973 18.1591 110.526 18.2727 111.018 18.5C111.511 18.7273 111.914 19.0455 112.229 19.4545C112.543 19.8636 112.738 20.3409 112.814 20.8864H111.473C111.371 20.4886 111.143 20.1364 110.791 19.8295C110.443 19.5189 109.973 19.3636 109.382 19.3636C108.859 19.3636 108.401 19.5 108.007 19.7727C107.617 20.0417 107.312 20.4223 107.092 20.9148C106.876 21.4034 106.768 21.9773 106.768 22.6364C106.768 23.3106 106.875 23.8977 107.087 24.3977C107.303 24.8977 107.606 25.286 107.996 25.5625C108.39 25.839 108.852 25.9773 109.382 25.9773C109.731 25.9773 110.047 25.9167 110.331 25.7955C110.615 25.6742 110.856 25.5 111.053 25.2727C111.25 25.0455 111.39 24.7727 111.473 24.4545H112.814C112.738 24.9697 112.551 25.4337 112.251 25.8466C111.956 26.2557 111.564 26.5814 111.075 26.8239C110.59 27.0625 110.026 27.1818 109.382 27.1818ZM120.024 27V19.5H117.706C117.183 19.5 116.772 19.6212 116.473 19.8636C116.174 20.1061 116.024 20.4394 116.024 20.8636C116.024 21.2803 116.159 21.608 116.428 21.8466C116.7 22.0852 117.073 22.2045 117.547 22.2045H120.365V23.4545H117.547C116.956 23.4545 116.446 23.3504 116.018 23.142C115.59 22.9337 115.261 22.6364 115.03 22.25C114.799 21.8598 114.683 21.3977 114.683 20.8636C114.683 20.3258 114.804 19.8636 115.047 19.4773C115.289 19.0909 115.636 18.7936 116.087 18.5852C116.541 18.3769 117.081 18.2727 117.706 18.2727H121.297V27H120.024ZM114.206 27L116.683 22.6591H118.138L115.661 27H114.206Z" fill="black"/>
<rect x="0.5" y="0.5" width="142" height="42" rx="21" stroke="black"/>
</svg>
